HIERARCHY
ROOT Hips
{
	OFFSET 52.887100 -8.121993 84.402702
	CHANNELS 6 Xposition Yposition Zposition Xrotation Yrotation Zrotation
	JOINT spine
	{
		OFFSET 0.000000 -0.342408 5.954384
		CHANNELS 3 Xrotation Yrotation Zrotation
		JOINT spine1
		{
			OFFSET 0.000000 -0.000002 8.856018
			CHANNELS 3 Xrotation Yrotation Zrotation
			JOINT spine2
			{
				OFFSET 0.000000 -0.000001 8.485672
				CHANNELS 3 Xrotation Yrotation Zrotation
				JOINT Neck
				{
					OFFSET 0.000000 -1.038704 21.786301
					CHANNELS 3 Xrotation Yrotation Zrotation
					JOINT Head
					{
						OFFSET 0.000000 -0.000001 6.582199
						CHANNELS 3 Xrotation Yrotation Zrotation
						End Site
						{
							OFFSET 0.000000 5.254357 15.932602
						}
					}
				}
				JOINT RightShoulder
				{
					OFFSET -3.573071 0.497523 9.163864
					CHANNELS 3 Xrotation Yrotation Zrotation
					JOINT RightArm
					{
						OFFSET 0.000000 -0.000002 12.019196
						CHANNELS 3 Xrotation Yrotation Zrotation
						JOINT RightArmRoll
						{
							OFFSET 0.000000 -0.000001 6.067551
							CHANNELS 3 Xrotation Yrotation Zrotation
							JOINT RightForeArm
							{
								OFFSET 0.000000 -0.000003 17.672592
								CHANNELS 3 Xrotation Yrotation Zrotation
								JOINT RightForeArmRoll
								{
									OFFSET 0.000000 -0.000001 6.808716
									CHANNELS 3 Xrotation Yrotation Zrotation
									JOINT RightHand
									{
										OFFSET 0.000000 -0.000002 13.663605
										CHANNELS 3 Xrotation Yrotation Zrotation
										End Site
										{
											OFFSET 0.000000 0.000000 0.100006
										}
									}
								}
							}
						}
					}
				}
				JOINT LeftShoulder
				{
					OFFSET 3.573071 0.497523 9.163864
					CHANNELS 3 Xrotation Yrotation Zrotation
					JOINT LeftArm
					{
						OFFSET 0.000000 -0.000002 12.019196
						CHANNELS 3 Xrotation Yrotation Zrotation
						JOINT LeftArmRoll
						{
							OFFSET 0.000000 -0.000001 6.067551
							CHANNELS 3 Xrotation Yrotation Zrotation
							JOINT LeftForeArm
							{
								OFFSET 0.000000 -0.000003 17.672592
								CHANNELS 3 Xrotation Yrotation Zrotation
								JOINT LeftForeArmRoll
								{
									OFFSET 0.000000 -0.000001 6.808716
									CHANNELS 3 Xrotation Yrotation Zrotation
									JOINT LeftHand
									{
										OFFSET 0.000000 -0.000002 13.663605
										CHANNELS 3 Xrotation Yrotation Zrotation
										End Site
										{
											OFFSET 0.000000 0.000000 0.100006
										}
									}
								}
							}
						}
					}
				}
			}
		}
	}
	JOINT RightUpLeg
	{
		OFFSET -5.277740 0.811858 -0.967796
		CHANNELS 3 Xrotation Yrotation Zrotation
		JOINT RightUpLegRoll
		{
			OFFSET 0.000000 -0.000002 16.021400
			CHANNELS 3 Xrotation Yrotation Zrotation
			JOINT RightLeg
			{
				OFFSET 0.000000 0.000003 -19.840096
				CHANNELS 3 Xrotation Yrotation Zrotation
				JOINT RightLegRoll
				{
					OFFSET 0.000000 -0.000003 19.904999
					CHANNELS 3 Xrotation Yrotation Zrotation
					JOINT RightFoot
					{
						OFFSET 0.000000 -0.000003 16.567497
						CHANNELS 3 Xrotation Yrotation Zrotation
						JOINT RightToeBase
						{
							OFFSET 0.000000 -0.000002 13.849602
							CHANNELS 3 Xrotation Yrotation Zrotation
							End Site
							{
								OFFSET 0.005871 0.773116 6.707275
							}
						}
					}
				}
			}
		}
	}
	JOINT LeftUpLeg
	{
		OFFSET 5.277740 0.811858 -0.967796
		CHANNELS 3 Xrotation Yrotation Zrotation
		JOINT LeftUpLegRoll
		{
			OFFSET 0.000000 -0.000002 16.021500
			CHANNELS 3 Xrotation Yrotation Zrotation
			JOINT LeftLeg
			{
				OFFSET 0.000000 -0.000003 19.839996
				CHANNELS 3 Xrotation Yrotation Zrotation
				JOINT LeftLegRoll
				{
					OFFSET 0.000000 -0.000003 20.089005
					CHANNELS 3 Xrotation Yrotation Zrotation
					JOINT LeftFoot
					{
						OFFSET 0.000000 -0.000002 16.383499
						CHANNELS 3 Xrotation Yrotation Zrotation
						JOINT LeftToeBase
						{
							OFFSET 0.000000 -0.000002 13.849594
							CHANNELS 3 Xrotation Yrotation Zrotation
							End Site
							{
								OFFSET -0.026310 0.773115 6.707275
							}
						}
					}
				}
			}
		}
	}
}
MOTION
Frames: 8
Frame Time: 0.041667
51.931301 -5.464311 84.313110 -11.134495 1.131186 -3.840738 0.165275 -0.433774 0.118625 4.335319 -0.867670 0.247288 5.980473 -0.864668 0.252182 14.995320 8.655681 -1.978765 -0.339609 -13.267975 -1.788156 6.570910 -71.720832 5.769082 -39.209087 -114.022229 -45.610183 -0.000002 -0.000003 0.000001 -0.027618 3.640470 -1.990626 0.000002 -0.000007 -3.011609 -5.000167 -7.999920 0.000007 -5.174115 63.840842 6.475493 -30.404392 123.981266 44.889120 0.000000 0.000000 0.000001 -0.027768 -3.643530 1.990652 -0.000003 -0.000010 3.011601 -5.000173 7.999921 -0.000006 4.389283 179.579238 3.302392 -179.999991 0.000005 -1.180005 169.853281 -2.714927 -0.586692 0.000001 -0.000001 0.145310 70.009138 6.855193 2.186090 25.456955 -7.355624 0.000005 5.596831 -179.722330 -0.108019 -0.000004 -0.000005 -1.202880 -11.147884 2.285926 0.524930 -0.000001 0.000001 -0.194281 71.133729 -6.799774 -2.216927 25.456952 7.355613 -0.000001 
51.926899 -5.466577 84.311401 -11.113481 1.128363 -3.820334 0.161015 -0.433094 0.118624 4.327825 -0.865357 0.247284 5.972970 -0.862356 0.252178 15.000352 8.634971 -1.990506 -0.347906 -13.268463 -1.798373 6.525883 -71.735844 5.717656 -39.245160 -114.025944 -45.643829 0.000000 -0.000003 0.000001 -0.027617 3.640470 -1.990626 0.000001 -0.000007 -3.011608 -5.000164 -7.999921 0.000007 -5.114583 63.816486 6.404769 -30.383977 124.007712 44.894311 0.000001 0.000000 0.000002 -0.027768 -3.643531 1.990656 -0.000001 -0.000010 3.011601 -5.000172 7.999920 -0.000007 4.371570 179.582230 3.303792 -179.999991 0.000005 -1.180006 169.858048 -2.720871 -0.587521 0.000002 -0.000002 0.145310 70.009781 6.855209 2.186053 25.456957 -7.355625 0.000005 5.556754 -179.731264 -0.118051 -0.000005 -0.000004 -1.202880 -11.166585 2.296699 0.526786 -0.000001 0.000001 -0.194281 71.125191 -6.799740 -2.217044 25.456955 7.355613 -0.000001 
51.930000 -5.446127 84.315804 -11.091665 1.125454 -3.798850 0.156626 -0.432410 0.118624 4.320121 -0.862974 0.247281 5.965275 -0.859975 0.252176 15.004179 8.612092 -2.002651 -0.355363 -13.267654 -1.808869 6.475655 -71.751513 5.660430 -39.280206 -114.030568 -45.676470 -0.000001 -0.000003 0.000001 -0.027618 3.640469 -1.990627 -0.000000 -0.000007 -3.011608 -5.000166 -7.999921 0.000007 -5.052332 63.789917 6.330728 -30.360543 124.036536 44.898146 0.000001 -0.000000 -0.000000 -0.027768 -3.643531 1.990653 -0.000001 -0.000011 3.011599 -5.000172 7.999920 -0.000008 4.353199 179.584197 3.305097 -179.999991 0.000005 -1.180006 169.862993 -2.726831 -0.587346 0.000002 -0.000002 0.145311 70.010416 6.855192 2.186112 25.456950 -7.355624 0.000005 5.514400 -179.739215 -0.128522 -0.000004 -0.000004 -1.202880 -11.186593 2.308020 0.528747 -0.000001 0.000001 -0.194281 71.115930 -6.799739 -2.217009 25.456952 7.355613 -0.000001 
51.933895 -5.447305 84.316292 -11.069250 1.122498 -3.776614 0.152140 -0.431723 0.118623 4.312287 -0.860544 0.247279 5.957439 -0.857545 0.252173 15.007338 8.587681 -2.015099 -0.362238 -13.265942 -1.819566 6.421761 -71.767700 5.599123 -39.317246 -114.034605 -45.711301 -0.000001 -0.000003 0.000002 -0.027618 3.640470 -1.990626 0.000000 -0.000007 -3.011610 -5.000167 -7.999919 0.000006 -4.988225 63.761776 6.254419 -30.335182 124.066958 44.901233 0.000002 -0.000000 0.000001 -0.027768 -3.643532 1.990653 -0.000002 -0.000011 3.011600 -5.000172 7.999919 -0.000010 4.334373 179.586178 3.306396 -179.999991 0.000005 -1.180004 169.868157 -2.732778 -0.588154 0.000001 -0.000002 0.145309 70.011147 6.855180 2.186065 25.456957 -7.355624 0.000005 5.470433 -179.748149 -0.139457 -0.000005 -0.000004 -1.202880 -11.207701 2.319722 0.530793 -0.000001 0.000001 -0.194281 71.106019 -6.799770 -2.217019 25.456948 7.355612 -0.000001 
51.930801 -5.447076 84.320000 -11.046534 1.119513 -3.753950 0.147605 -0.431033 0.118623 4.304373 -0.858086 0.247277 5.949514 -0.855089 0.252171 15.009860 8.562421 -2.027687 -0.368780 -13.263835 -1.830385 6.365747 -71.784243 5.535455 -39.352842 -114.039434 -45.744625 0.000000 -0.000003 0.000002 -0.027618 3.640470 -1.990625 0.000001 -0.000007 -3.011609 -5.000165 -7.999921 0.000007 -4.923142 63.732748 6.176887 -30.308643 124.098117 44.903962 0.000002 -0.000000 0.000000 -0.027770 -3.643531 1.990655 -0.000001 -0.000010 3.011600 -5.000171 7.999921 -0.000008 4.315295 179.589155 3.307759 -179.999991 0.000005 -1.180006 169.873307 -2.739708 -0.589138 0.000002 -0.000001 0.145309 70.011795 6.855197 2.186027 25.456957 -7.355623 0.000004 5.425563 -179.757096 -0.150595 -0.000004 -0.000004 -1.202880 -11.229317 2.331643 0.532887 -0.000001 0.000001 -0.194281 71.095992 -6.799733 -2.217126 25.456950 7.355613 -0.000001 
51.929100 -5.450524 84.316811 -11.023716 1.116547 -3.731180 0.143050 -0.430344 0.118624 4.296429 -0.855622 0.247277 5.941579 -0.852626 0.252170 15.012373 8.536926 -2.040327 -0.375235 -13.261523 -1.841231 6.309091 -71.800779 5.471078 -39.388629 -114.044317 -45.778168 0.000000 -0.000003 0.000002 -0.027618 3.640470 -1.990626 0.000000 -0.000007 -3.011609 -5.000165 -7.999921 0.000007 -4.857916 63.703494 6.099177 -30.282009 124.129235 44.906728 0.000001 0.000000 -0.000000 -0.027770 -3.643530 1.990656 -0.000002 -0.000010 3.011601 -5.000172 7.999919 -0.000006 4.296143 179.591164 3.309045 -179.999991 0.000005 -1.180006 169.878553 -2.745656 -0.588941 0.000002 -0.000002 0.145310 70.012437 6.855215 2.185991 25.456950 -7.355625 0.000005 5.380447 -179.767041 -0.161866 -0.000004 -0.000004 -1.202870 -11.251034 2.343610 0.534997 -0.000001 0.000001 -0.194281 71.085761 -6.799759 -2.217153 25.456950 7.355613 -0.000001 
51.941399 -5.443053 84.315598 -11.001105 1.113609 -3.708619 0.138524 -0.429655 0.118622 4.288537 -0.853172 0.247276 5.933686 -0.850176 0.252170 15.015111 8.511870 -2.052882 -0.381852 -13.259415 -1.852016 6.253389 -71.817171 5.407773 -39.425645 -114.048381 -45.813033 -0.000000 -0.000003 0.000002 -0.027618 3.640470 -1.990625 0.000001 -0.000007 -3.011610 -5.000164 -7.999920 0.000006 -4.793363 63.674596 6.022278 -30.256464 124.159602 44.910386 0.000002 0.000000 -0.000000 -0.027768 -3.643531 1.990652 -0.000002 -0.000010 3.011600 -5.000171 7.999920 -0.000007 4.277127 179.593131 3.310341 -179.999991 0.000005 -1.180005 169.883716 -2.752600 -0.589924 0.000002 -0.000001 0.145310 70.013168 6.855168 2.186138 25.456955 -7.355623 0.000006 5.335802 -179.775988 -0.172917 -0.000005 -0.000004 -1.202870 -11.272547 2.355469 0.537099 -0.000000 0.000001 -0.194281 71.075748 -6.799747 -2.217262 25.456948 7.355613 -0.000001 
51.942299 -5.437004 84.319298 -10.978786 1.110738 -3.686595 0.134069 -0.428969 0.118623 4.280742 -0.850756 0.247276 5.925880 -0.847760 0.252170 15.018399 8.487895 -2.065223 -0.388895 -13.258004 -1.862662 6.200139 -71.833161 5.347207 -39.460813 -114.053115 -45.845872 -0.000001 -0.000003 0.000002 -0.027620 3.640470 -1.990626 -0.000000 -0.000007 -3.011610 -5.000164 -7.999920 0.000006 -4.730315 63.646722 5.947205 -30.232026 124.189204 44.914146 0.000001 -0.000000 0.000001 -0.027770 -3.643530 1.990655 -0.000001 -0.000011 3.011597 -5.000172 7.999920 -0.000007 4.258439 179.596122 3.311717 -179.999991 0.000005 -1.180006 169.888866 -2.758549 -0.590728 0.000002 -0.000002 0.145309 70.013803 6.855187 2.186103 25.456953 -7.355622 0.000005 5.292299 -179.784909 -0.183680 -0.000005 -0.000004 -1.202870 -11.293263 2.367058 0.539155 -0.000001 0.000001 -0.194281 71.066062 -6.799765 -2.217257 25.456950 7.355613 -0.000001 
